{
	"asset":{
		"generator":"Khronos glTF Blender I/O v4.1.62",
		"version":"2.0"
	},
	"scene":0,
	"scenes":[
		{
			"name":"Scene",
			"nodes":[
				22
			]
		}
	],
	"nodes":[
		{
			"name":"arm_right_hand",
			"rotation":[
				-2.1886084056177424e-08,
				7.357449050005016e-08,
				1.4062972297779197e-07,
				1
			],
			"scale":[
				0.9999998807907104,
				0.9999999403953552,
				0.9999999403953552
			],
			"translation":[
				9.164214134216309e-07,
				6.2165398597717285,
				-2.682209014892578e-07
			]
		},
		{
			"children":[
				0
			],
			"name":"arm_right_bot",
			"rotation":[
				0.017791269347071648,
				-0.03134912997484207,
				-0.06935206800699234,
				0.9969407916069031
			],
			"scale":[
				1,
				1,
				0.9999999403953552
			],
			"translation":[
				3.390014171600342e-07,
				7.194868564605713,
				-9.685754776000977e-08
			]
		},
		{
			"children":[
				1
			],
			"name":"arm_right_top",
			"rotation":[
				0.019359035417437553,
				-0.03036043792963028,
				0.060957860201597214,
				0.997490644454956
			],
			"scale":[
				0.9999999403953552,
				1,
				0.9999999403953552
			],
			"translation":[
				-8.102506399154663e-07,
				4.7286248207092285,
				-8.917413651943207e-08
			]
		},
		{
			"children":[
				2
			],
			"name":"shoulder_right",
			"rotation":[
				-0.1338767409324646,
				0.16261443495750427,
				0.8120433688163757,
				0.5442602038383484
			],
			"scale":[
				0.9999997019767761,
				0.9999997019767761,
				0.9999998211860657
			],
			"translation":[
				-4.394093036651611,
				-0.7287976145744324,
				-1.6811808347702026
			]
		},
		{
			"name":"head",
			"rotation":[
				-2.4472917914408754e-08,
				-1.3742342819256237e-09,
				6.05359673500061e-09,
				1
			],
			"translation":[
				-5.2120185500825755e-08,
				6.055216312408447,
				7.944883577692963e-07
			]
		},
		{
			"children":[
				4
			],
			"name":"neck",
			"rotation":[
				-0.19796083867549896,
				0.0016559117939323187,
				0.01844027452170849,
				0.9800350666046143
			],
			"scale":[
				0.9999998211860657,
				0.9999998807907104,
				0.9999998211860657
			],
			"translation":[
				5.029141902923584e-08,
				3.9769604206085205,
				-1.1938391253352165e-07
			]
		},
		{
			"name":"arm_left_hand",
			"rotation":[
				-8.614735236278648e-08,
				-1.5692786803356285e-07,
				-2.770684943698143e-07,
				1
			],
			"scale":[
				0.9999998807907104,
				0.9999999403953552,
				0.9999999403953552
			],
			"translation":[
				1.862645149230957e-07,
				6.21653938293457,
				1.4901161193847656e-08
			]
		},
		{
			"children":[
				6
			],
			"name":"arm_left_bot",
			"rotation":[
				0.017791293561458588,
				0.031349148601293564,
				0.069351926445961,
				0.9969407916069031
			],
			"scale":[
				1.0000001192092896,
				1.0000001192092896,
				1
			],
			"translation":[
				-5.923211574554443e-07,
				7.194869518280029,
				3.3527612686157227e-08
			]
		},
		{
			"children":[
				7
			],
			"name":"arm_left_top",
			"rotation":[
				0.01935911364853382,
				0.030360372737050056,
				-0.060957688838243484,
				0.9974907040596008
			],
			"scale":[
				0.9999999403953552,
				0.9999999403953552,
				1
			],
			"translation":[
				-6.798654794692993e-07,
				4.728623867034912,
				3.4924596548080444e-07
			]
		},
		{
			"children":[
				8
			],
			"name":"shoulder_left",
			"rotation":[
				-0.13387668132781982,
				-0.16306108236312866,
				-0.8004027605056763,
				0.5611092448234558
			],
			"scale":[
				0.9999998211860657,
				0.9999999403953552,
				0.9999998211860657
			],
			"translation":[
				4.395875930786133,
				-0.5522781014442444,
				-1.7168338298797607
			]
		},
		{
			"children":[
				3,
				5,
				9
			],
			"name":"body_top2",
			"rotation":[
				0.21444818377494812,
				-0.00121038849465549,
				-0.01708744280040264,
				0.9765850901603699
			],
			"scale":[
				1,
				1.0000001192092896,
				1
			],
			"translation":[
				2.7706846594810486e-08,
				8.053390502929688,
				-7.484243269573199e-07
			]
		},
		{
			"children":[
				10
			],
			"name":"body_top1",
			"rotation":[
				-0.019836802035570145,
				-1.2968963346793316e-05,
				0.00899472925812006,
				0.9997628331184387
			],
			"scale":[
				1,
				1,
				0.9999999403953552
			],
			"translation":[
				1.2816599337384105e-08,
				3.517326593399048,
				1.6682349723851075e-07
			]
		},
		{
			"children":[
				11
			],
			"name":"body_top0",
			"rotation":[
				-0.06884438544511795,
				-0.00013977402704767883,
				-0.00048051716294139624,
				0.997627317905426
			],
			"scale":[
				0.9999999403953552,
				1,
				0.9999999403953552
			],
			"translation":[
				7.805065251886845e-07,
				5.571663856506348,
				8.421247912338004e-07
			]
		},
		{
			"name":"leg_left_foot",
			"rotation":[
				-1.0722535748186601e-08,
				0.9962033629417419,
				-0.08705651015043259,
				7.521127542986505e-08
			],
			"scale":[
				1,
				1.000000238418579,
				0.9999999403953552
			],
			"translation":[
				6.578825662018062e-08,
				8.656673431396484,
				4.6098847406028653e-08
			]
		},
		{
			"children":[
				13
			],
			"name":"leg_left_bot",
			"rotation":[
				0.128291517496109,
				-1.8370393206623703e-07,
				4.849767165637786e-08,
				0.9917364716529846
			],
			"scale":[
				1,
				1.0000001192092896,
				1.0000001192092896
			],
			"translation":[
				1.91034700947057e-07,
				7.798332214355469,
				7.117228051356506e-08
			]
		},
		{
			"children":[
				14
			],
			"name":"leg_left_top",
			"rotation":[
				0.993579626083374,
				0.001522441511042416,
				6.341947300825268e-05,
				0.11312489956617355
			],
			"scale":[
				0.9999999403953552,
				0.9999999403953552,
				1.0000003576278687
			],
			"translation":[
				2.2300596237182617,
				-4.071380615234375,
				0.15083816647529602
			]
		},
		{
			"name":"leg_right_foot",
			"rotation":[
				3.0911639914421585e-10,
				0.9962033629417419,
				-0.0870567113161087,
				7.521126121901034e-08
			],
			"translation":[
				-1.5961104793404957e-07,
				8.656685829162598,
				2.4026428491197294e-07
			]
		},
		{
			"children":[
				16
			],
			"name":"leg_right_bot",
			"rotation":[
				0.12829191982746124,
				-1.0593896604405018e-07,
				3.3280507238941937e-08,
				0.9917364716529846
			],
			"scale":[
				1,
				1,
				0.9999999403953552
			],
			"translation":[
				4.69180406525993e-07,
				7.798336982727051,
				2.4647988539072685e-08
			]
		},
		{
			"children":[
				17
			],
			"name":"leg_right_top",
			"rotation":[
				0.993579626083374,
				0.0015224344097077847,
				6.336864316836e-05,
				0.11312519758939743
			],
			"scale":[
				0.9999999403953552,
				0.9999998211860657,
				0.9999942183494568
			],
			"translation":[
				-2.378211259841919,
				-4.085387706756592,
				0.1518462598323822
			]
		},
		{
			"children":[
				12,
				15,
				18
			],
			"name":"body",
			"rotation":[
				0.07182183861732483,
				-7.976869831338718e-09,
				-0.0015237147454172373,
				0.9974163174629211
			],
			"translation":[
				-7.580873012542725,
				23.829654693603516,
				-2.0916473865509033
			]
		},
		{
			"children":[
				19
			],
			"name":"root",
			"rotation":[
				-0.7071031928062439,
				0,
				0,
				0.7071103453636169
			],
			"translation":[
				7.6673784255981445,
				4.229114532470703,
				39.18595886230469
			]
		},
		{
			"mesh":0,
			"name":"Cindy2",
			"skin":0
		},
		{
			"children":[
				21,
				20
			],
			"name":"rig",
			"rotation":[
				0.7071068286895752,
				0,
				0,
				0.7071068286895752
			]
		}
	],
	"animations":[
		{
			"channels":[
				{
					"sampler":0,
					"target":{
						"node":20,
						"path":"translation"
					}
				},
				{
					"sampler":1,
					"target":{
						"node":20,
						"path":"rotation"
					}
				},
				{
					"sampler":2,
					"target":{
						"node":20,
						"path":"scale"
					}
				},
				{
					"sampler":3,
					"target":{
						"node":19,
						"path":"translation"
					}
				},
				{
					"sampler":4,
					"target":{
						"node":19,
						"path":"rotation"
					}
				},
				{
					"sampler":5,
					"target":{
						"node":19,
						"path":"scale"
					}
				},
				{
					"sampler":6,
					"target":{
						"node":12,
						"path":"translation"
					}
				},
				{
					"sampler":7,
					"target":{
						"node":12,
						"path":"rotation"
					}
				},
				{
					"sampler":8,
					"target":{
						"node":12,
						"path":"scale"
					}
				},
				{
					"sampler":9,
					"target":{
						"node":11,
						"path":"translation"
					}
				},
				{
					"sampler":10,
					"target":{
						"node":11,
						"path":"rotation"
					}
				},
				{
					"sampler":11,
					"target":{
						"node":11,
						"path":"scale"
					}
				},
				{
					"sampler":12,
					"target":{
						"node":10,
						"path":"translation"
					}
				},
				{
					"sampler":13,
					"target":{
						"node":10,
						"path":"rotation"
					}
				},
				{
					"sampler":14,
					"target":{
						"node":10,
						"path":"scale"
					}
				},
				{
					"sampler":15,
					"target":{
						"node":3,
						"path":"translation"
					}
				},
				{
					"sampler":16,
					"target":{
						"node":3,
						"path":"rotation"
					}
				},
				{
					"sampler":17,
					"target":{
						"node":3,
						"path":"scale"
					}
				},
				{
					"sampler":18,
					"target":{
						"node":2,
						"path":"translation"
					}
				},
				{
					"sampler":19,
					"target":{
						"node":2,
						"path":"rotation"
					}
				},
				{
					"sampler":20,
					"target":{
						"node":2,
						"path":"scale"
					}
				},
				{
					"sampler":21,
					"target":{
						"node":1,
						"path":"translation"
					}
				},
				{
					"sampler":22,
					"target":{
						"node":1,
						"path":"rotation"
					}
				},
				{
					"sampler":23,
					"target":{
						"node":1,
						"path":"scale"
					}
				},
				{
					"sampler":24,
					"target":{
						"node":0,
						"path":"translation"
					}
				},
				{
					"sampler":25,
					"target":{
						"node":0,
						"path":"rotation"
					}
				},
				{
					"sampler":26,
					"target":{
						"node":0,
						"path":"scale"
					}
				},
				{
					"sampler":27,
					"target":{
						"node":5,
						"path":"translation"
					}
				},
				{
					"sampler":28,
					"target":{
						"node":5,
						"path":"rotation"
					}
				},
				{
					"sampler":29,
					"target":{
						"node":5,
						"path":"scale"
					}
				},
				{
					"sampler":30,
					"target":{
						"node":4,
						"path":"translation"
					}
				},
				{
					"sampler":31,
					"target":{
						"node":4,
						"path":"rotation"
					}
				},
				{
					"sampler":32,
					"target":{
						"node":4,
						"path":"scale"
					}
				},
				{
					"sampler":33,
					"target":{
						"node":9,
						"path":"translation"
					}
				},
				{
					"sampler":34,
					"target":{
						"node":9,
						"path":"rotation"
					}
				},
				{
					"sampler":35,
					"target":{
						"node":9,
						"path":"scale"
					}
				},
				{
					"sampler":36,
					"target":{
						"node":8,
						"path":"translation"
					}
				},
				{
					"sampler":37,
					"target":{
						"node":8,
						"path":"rotation"
					}
				},
				{
					"sampler":38,
					"target":{
						"node":8,
						"path":"scale"
					}
				},
				{
					"sampler":39,
					"target":{
						"node":7,
						"path":"translation"
					}
				},
				{
					"sampler":40,
					"target":{
						"node":7,
						"path":"rotation"
					}
				},
				{
					"sampler":41,
					"target":{
						"node":7,
						"path":"scale"
					}
				},
				{
					"sampler":42,
					"target":{
						"node":6,
						"path":"translation"
					}
				},
				{
					"sampler":43,
					"target":{
						"node":6,
						"path":"rotation"
					}
				},
				{
					"sampler":44,
					"target":{
						"node":6,
						"path":"scale"
					}
				},
				{
					"sampler":45,
					"target":{
						"node":15,
						"path":"translation"
					}
				},
				{
					"sampler":46,
					"target":{
						"node":15,
						"path":"rotation"
					}
				},
				{
					"sampler":47,
					"target":{
						"node":15,
						"path":"scale"
					}
				},
				{
					"sampler":48,
					"target":{
						"node":14,
						"path":"translation"
					}
				},
				{
					"sampler":49,
					"target":{
						"node":14,
						"path":"rotation"
					}
				},
				{
					"sampler":50,
					"target":{
						"node":14,
						"path":"scale"
					}
				},
				{
					"sampler":51,
					"target":{
						"node":13,
						"path":"translation"
					}
				},
				{
					"sampler":52,
					"target":{
						"node":13,
						"path":"rotation"
					}
				},
				{
					"sampler":53,
					"target":{
						"node":13,
						"path":"scale"
					}
				},
				{
					"sampler":54,
					"target":{
						"node":18,
						"path":"translation"
					}
				},
				{
					"sampler":55,
					"target":{
						"node":18,
						"path":"rotation"
					}
				},
				{
					"sampler":56,
					"target":{
						"node":18,
						"path":"scale"
					}
				},
				{
					"sampler":57,
					"target":{
						"node":17,
						"path":"translation"
					}
				},
				{
					"sampler":58,
					"target":{
						"node":17,
						"path":"rotation"
					}
				},
				{
					"sampler":59,
					"target":{
						"node":17,
						"path":"scale"
					}
				},
				{
					"sampler":60,
					"target":{
						"node":16,
						"path":"translation"
					}
				},
				{
					"sampler":61,
					"target":{
						"node":16,
						"path":"rotation"
					}
				},
				{
					"sampler":62,
					"target":{
						"node":16,
						"path":"scale"
					}
				},
				{
					"sampler":63,
					"target":{
						"node":22,
						"path":"translation"
					}
				},
				{
					"sampler":64,
					"target":{
						"node":22,
						"path":"rotation"
					}
				},
				{
					"sampler":65,
					"target":{
						"node":22,
						"path":"scale"
					}
				}
			],
			"name":"rig|rig|walk",
			"samplers":[
				{
					"input":55,
					"interpolation":"STEP",
					"output":56
				},
				{
					"input":55,
					"interpolation":"STEP",
					"output":57
				},
				{
					"input":55,
					"interpolation":"STEP",
					"output":58
				},
				{
					"input":59,
					"interpolation":"LINEAR",
					"output":60
				},
				{
					"input":59,
					"interpolation":"LINEAR",
					"output":61
				},
				{
					"input":55,
					"interpolation":"STEP",
					"output":62
				},
				{
					"input":59,
					"interpolation":"LINEAR",
					"output":63
				},
				{
					"input":59,
					"interpolation":"LINEAR",
					"output":64
				},
				{
					"input":55,
					"interpolation":"STEP",
					"output":65
				},
				{
					"input":55,
					"interpolation":"STEP",
					"output":66
				},
				{
					"input":59,
					"interpolation":"LINEAR",
					"output":67
				},
				{
					"input":55,
					"interpolation":"STEP",
					"output":68
				},
				{
					"input":59,
					"interpolation":"LINEAR",
					"output":69
				},
				{
					"input":59,
					"interpolation":"LINEAR",
					"output":70
				},
				{
					"input":55,
					"interpolation":"STEP",
					"output":71
				},
				{
					"input":55,
					"interpolation":"STEP",
					"output":72
				},
				{
					"input":59,
					"interpolation":"LINEAR",
					"output":73
				},
				{
					"input":55,
					"interpolation":"STEP",
					"output":74
				},
				{
					"input":55,
					"interpolation":"STEP",
					"output":75
				},
				{
					"input":59,
					"interpolation":"LINEAR",
					"output":76
				},
				{
					"input":55,
					"interpolation":"STEP",
					"output":77
				},
				{
					"input":55,
					"interpolation":"STEP",
					"output":78
				},
				{
					"input":59,
					"interpolation":"LINEAR",
					"output":79
				},
				{
					"input":55,
					"interpolation":"STEP",
					"output":80
				},
				{
					"input":55,
					"interpolation":"STEP",
					"output":81
				},
				{
					"input":59,
					"interpolation":"LINEAR",
					"output":82
				},
				{
					"input":55,
					"interpolation":"STEP",
					"output":83
				},
				{
					"input":55,
					"interpolation":"STEP",
					"output":84
				},
				{
					"input":59,
					"interpolation":"LINEAR",
					"output":85
				},
				{
					"input":55,
					"interpolation":"STEP",
					"output":86
				},
				{
					"input":59,
					"interpolation":"LINEAR",
					"output":87
				},
				{
					"input":59,
					"interpolation":"LINEAR",
					"output":88
				},
				{
					"input":55,
					"interpolation":"STEP",
					"output":89
				},
				{
					"input":55,
					"interpolation":"STEP",
					"output":90
				},
				{
					"input":59,
					"interpolation":"LINEAR",
					"output":91
				},
				{
					"input":55,
					"interpolation":"STEP",
					"output":92
				},
				{
					"input":55,
					"interpolation":"STEP",
					"output":93
				},
				{
					"input":59,
					"interpolation":"LINEAR",
					"output":94
				},
				{
					"input":55,
					"interpolation":"STEP",
					"output":95
				},
				{
					"input":55,
					"interpolation":"STEP",
					"output":96
				},
				{
					"input":59,
					"interpolation":"LINEAR",
					"output":97
				},
				{
					"input":55,
					"interpolation":"STEP",
					"output":98
				},
				{
					"input":55,
					"interpolation":"STEP",
					"output":99
				},
				{
					"input":59,
					"interpolation":"LINEAR",
					"output":100
				},
				{
					"input":55,
					"interpolation":"STEP",
					"output":101
				},
				{
					"input":55,
					"interpolation":"STEP",
					"output":102
				},
				{
					"input":59,
					"interpolation":"LINEAR",
					"output":103
				},
				{
					"input":55,
					"interpolation":"STEP",
					"output":104
				},
				{
					"input":55,
					"interpolation":"STEP",
					"output":105
				},
				{
					"input":59,
					"interpolation":"LINEAR",
					"output":106
				},
				{
					"input":55,
					"interpolation":"STEP",
					"output":107
				},
				{
					"input":55,
					"interpolation":"STEP",
					"output":108
				},
				{
					"input":59,
					"interpolation":"LINEAR",
					"output":109
				},
				{
					"input":55,
					"interpolation":"STEP",
					"output":110
				},
				{
					"input":55,
					"interpolation":"STEP",
					"output":111
				},
				{
					"input":59,
					"interpolation":"LINEAR",
					"output":112
				},
				{
					"input":55,
					"interpolation":"STEP",
					"output":113
				},
				{
					"input":55,
					"interpolation":"STEP",
					"output":114
				},
				{
					"input":59,
					"interpolation":"LINEAR",
					"output":115
				},
				{
					"input":55,
					"interpolation":"STEP",
					"output":116
				},
				{
					"input":55,
					"interpolation":"STEP",
					"output":117
				},
				{
					"input":59,
					"interpolation":"LINEAR",
					"output":118
				},
				{
					"input":55,
					"interpolation":"STEP",
					"output":119
				},
				{
					"input":55,
					"interpolation":"STEP",
					"output":120
				},
				{
					"input":55,
					"interpolation":"STEP",
					"output":121
				},
				{
					"input":55,
					"interpolation":"STEP",
					"output":122
				}
			]
		}
	],
	"materials":[
		{
			"doubleSided":true,
			"name":"legsMat.002",
			"pbrMetallicRoughness":{
				"baseColorFactor":[
					0,
					0,
					0,
					1
				],
				"metallicFactor":0
			}
		},
		{
			"doubleSided":true,
			"name":"headMat.003",
			"pbrMetallicRoughness":{
				"metallicFactor":0
			}
		},
		{
			"doubleSided":true,
			"name":"eyesMat.003",
			"pbrMetallicRoughness":{
				"baseColorFactor":[
					0,
					0,
					0,
					1
				],
				"metallicFactor":0
			}
		},
		{
			"doubleSided":true,
			"name":"hairMat.001",
			"pbrMetallicRoughness":{
				"baseColorFactor":[
					0.800000011920929,
					0.800000011920929,
					0.800000011920929,
					1
				],
				"metallicFactor":0
			}
		},
		{
			"doubleSided":true,
			"name":"dressMat_01.001",
			"pbrMetallicRoughness":{
				"baseColorFactor":[
					0.800000011920929,
					0.800000011920929,
					0.800000011920929,
					1
				],
				"metallicFactor":0
			}
		},
		{
			"doubleSided":true,
			"name":"dressMat_02.001",
			"pbrMetallicRoughness":{
				"baseColorFactor":[
					0.800000011920929,
					0.800000011920929,
					0.800000011920929,
					1
				],
				"metallicFactor":0
			}
		},
		{
			"doubleSided":true,
			"name":"dressMat_03",
			"pbrMetallicRoughness":{
				"baseColorFactor":[
					0.800000011920929,
					0.800000011920929,
					0.800000011920929,
					1
				],
				"metallicFactor":0
			}
		},
		{
			"doubleSided":true,
			"name":"spikesMat.001",
			"pbrMetallicRoughness":{
				"baseColorFactor":[
					0.800000011920929,
					0.800000011920929,
					0.800000011920929,
					1
				],
				"metallicFactor":0
			}
		},
		{
			"doubleSided":true,
			"name":"leavesMat.001",
			"pbrMetallicRoughness":{
				"baseColorFactor":[
					0.800000011920929,
					0.800000011920929,
					0.800000011920929,
					1
				],
				"metallicFactor":0
			}
		}
	],
	"meshes":[
		{
			"name":"Cindy2",
			"primitives":[
				{
					"attributes":{
						"POSITION":0,
						"NORMAL":1,
						"TEXCOORD_0":2,
						"JOINTS_0":3,
						"WEIGHTS_0":4
					},
					"indices":5,
					"material":0
				},
				{
					"attributes":{
						"POSITION":6,
						"NORMAL":7,
						"TEXCOORD_0":8,
						"JOINTS_0":9,
						"WEIGHTS_0":10
					},
					"indices":11,
					"material":1
				},
				{
					"attributes":{
						"POSITION":12,
						"NORMAL":13,
						"TEXCOORD_0":14,
						"JOINTS_0":15,
						"WEIGHTS_0":16
					},
					"indices":17,
					"material":2
				},
				{
					"attributes":{
						"POSITION":18,
						"NORMAL":19,
						"TEXCOORD_0":20,
						"JOINTS_0":21,
						"WEIGHTS_0":22
					},
					"indices":23,
					"material":3
				},
				{
					"attributes":{
						"POSITION":24,
						"NORMAL":25,
						"TEXCOORD_0":26,
						"JOINTS_0":27,
						"WEIGHTS_0":28
					},
					"indices":29,
					"material":4
				},
				{
					"attributes":{
						"POSITION":30,
						"NORMAL":31,
						"TEXCOORD_0":32,
						"JOINTS_0":33,
						"WEIGHTS_0":34
					},
					"indices":35,
					"material":5
				},
				{
					"attributes":{
						"POSITION":36,
						"NORMAL":37,
						"TEXCOORD_0":38,
						"JOINTS_0":39,
						"WEIGHTS_0":40
					},
					"indices":41,
					"material":6
				},
				{
					"attributes":{
						"POSITION":42,
						"NORMAL":43,
						"TEXCOORD_0":44,
						"JOINTS_0":45,
						"WEIGHTS_0":46
					},
					"indices":47,
					"material":7
				},
				{
					"attributes":{
						"POSITION":48,
						"NORMAL":49,
						"TEXCOORD_0":50,
						"JOINTS_0":51,
						"WEIGHTS_0":52
					},
					"indices":53,
					"material":8
				}
			]
		}
	],
	"skins":[
		{
			"inverseBindMatrices":54,
			"joints":[
				20,
				19,
				12,
				11,
				10,
				3,
				2,
				1,
				0,
				5,
				4,
				9,
				8,
				7,
				6,
				15,
				14,
				13,
				18,
				17,
				16
			],
			"name":"rig"
		}
	],
	"accessors":[
		{
			"bufferView":0,
			"componentType":5126,
			"count":728,
			"max":[
				24.772253036499023,
				2.973496913909912,
				8.18371295928955
			],
			"min":[
				-24.772253036499023,
				-39.18595504760742,
				-3.277570962905884
			],
			"type":"VEC3"
		},
		{
			"bufferView":1,
			"componentType":5126,
			"count":728,
			"type":"VEC3"
		},
		{
			"bufferView":2,
			"componentType":5126,
			"count":728,
			"type":"VEC2"
		},
		{
			"bufferView":3,
			"componentType":5121,
			"count":728,
			"type":"VEC4"
		},
		{
			"bufferView":4,
			"componentType":5126,
			"count":728,
			"type":"VEC4"
		},
		{
			"bufferView":5,
			"componentType":5123,
			"count":2424,
			"type":"SCALAR"
		},
		{
			"bufferView":6,
			"componentType":5126,
			"count":255,
			"max":[
				13.012490272521973,
				30.510351181030273,
				15.515096664428711
			],
			"min":[
				-13.012490272521973,
				4.985455513000488,
				-9.231361389160156
			],
			"type":"VEC3"
		},
		{
			"bufferView":7,
			"componentType":5126,
			"count":255,
			"type":"VEC3"
		},
		{
			"bufferView":8,
			"componentType":5126,
			"count":255,
			"type":"VEC2"
		},
		{
			"bufferView":9,
			"componentType":5121,
			"count":255,
			"type":"VEC4"
		},
		{
			"bufferView":10,
			"componentType":5126,
			"count":255,
			"type":"VEC4"
		},
		{
			"bufferView":11,
			"componentType":5123,
			"count":1428,
			"type":"SCALAR"
		},
		{
			"bufferView":12,
			"componentType":5126,
			"count":158,
			"max":[
				10.389229774475098,
				18.615400314331055,
				16.114595413208008
			],
			"min":[
				-10.389229774475098,
				9.940410614013672,
				8.797643661499023
			],
			"type":"VEC3"
		},
		{
			"bufferView":13,
			"componentType":5126,
			"count":158,
			"type":"VEC3"
		},
		{
			"bufferView":14,
			"componentType":5126,
			"count":158,
			"type":"VEC2"
		},
		{
			"bufferView":15,
			"componentType":5121,
			"count":158,
			"type":"VEC4"
		},
		{
			"bufferView":16,
			"componentType":5126,
			"count":158,
			"type":"VEC4"
		},
		{
			"bufferView":17,
			"componentType":5123,
			"count":672,
			"type":"SCALAR"
		},
		{
			"bufferView":18,
			"componentType":5126,
			"count":238,
			"max":[
				18.501216888427734,
				38.41786575317383,
				11.43860149383545
			],
			"min":[
				-18.501216888427734,
				23.10291862487793,
				-3.8763463497161865
			],
			"type":"VEC3"
		},
		{
			"bufferView":19,
			"componentType":5126,
			"count":238,
			"type":"VEC3"
		},
		{
			"bufferView":20,
			"componentType":5126,
			"count":238,
			"type":"VEC2"
		},
		{
			"bufferView":21,
			"componentType":5121,
			"count":238,
			"type":"VEC4"
		},
		{
			"bufferView":22,
			"componentType":5126,
			"count":238,
			"type":"VEC4"
		},
		{
			"bufferView":23,
			"componentType":5123,
			"count":1236,
			"type":"SCALAR"
		},
		{
			"bufferView":24,
			"componentType":5126,
			"count":402,
			"max":[
				4.51426362991333,
				4.518540859222412,
				13.264627456665039
			],
			"min":[
				-19.253801345825195,
				-27.009822845458984,
				-10.907371520996094
			],
			"type":"VEC3"
		},
		{
			"bufferView":25,
			"componentType":5126,
			"count":402,
			"type":"VEC3"
		},
		{
			"bufferView":26,
			"componentType":5126,
			"count":402,
			"type":"VEC2"
		},
		{
			"bufferView":27,
			"componentType":5121,
			"count":402,
			"type":"VEC4"
		},
		{
			"bufferView":28,
			"componentType":5126,
			"count":402,
			"type":"VEC4"
		},
		{
			"bufferView":29,
			"componentType":5123,
			"count":1992,
			"type":"SCALAR"
		},
		{
			"bufferView":30,
			"componentType":5126,
			"count":428,
			"max":[
				15.712119102478027,
				4.41010046005249,
				14.993814468383789
			],
			"min":[
				-6.956651210784912,
				-25.32077407836914,
				-8.574695587158203
			],
			"type":"VEC3"
		},
		{
			"bufferView":31,
			"componentType":5126,
			"count":428,
			"type":"VEC3"
		},
		{
			"bufferView":32,
			"componentType":5126,
			"count":428,
			"type":"VEC2"
		},
		{
			"bufferView":33,
			"componentType":5121,
			"count":428,
			"type":"VEC4"
		},
		{
			"bufferView":34,
			"componentType":5126,
			"count":428,
			"type":"VEC4"
		},
		{
			"bufferView":35,
			"componentType":5123,
			"count":2124,
			"type":"SCALAR"
		},
		{
			"bufferView":36,
			"componentType":5126,
			"count":497,
			"max":[
				15.611431121826172,
				4.3016676902771,
				10.162739753723145
			],
			"min":[
				-15.611778259277344,
				-27.378538131713867,
				-14.480371475219727
			],
			"type":"VEC3"
		},
		{
			"bufferView":37,
			"componentType":5126,
			"count":497,
			"type":"VEC3"
		},
		{
			"bufferView":38,
			"componentType":5126,
			"count":497,
			"type":"VEC2"
		},
		{
			"bufferView":39,
			"componentType":5121,
			"count":497,
			"type":"VEC4"
		},
		{
			"bufferView":40,
			"componentType":5126,
			"count":497,
			"type":"VEC4"
		},
		{
			"bufferView":41,
			"componentType":5123,
			"count":2412,
			"type":"SCALAR"
		},
		{
			"bufferView":42,
			"componentType":5126,
			"count":426,
			"max":[
				19.759292602539062,
				39.18594741821289,
				11.978388786315918
			],
			"min":[
				-19.759292602539062,
				23.515127182006836,
				-5.295459270477295
			],
			"type":"VEC3"
		},
		{
			"bufferView":43,
			"componentType":5126,
			"count":426,
			"type":"VEC3"
		},
		{
			"bufferView":44,
			"componentType":5126,
			"count":426,
			"type":"VEC2"
		},
		{
			"bufferView":45,
			"componentType":5121,
			"count":426,
			"type":"VEC4"
		},
		{
			"bufferView":46,
			"componentType":5126,
			"count":426,
			"type":"VEC4"
		},
		{
			"bufferView":47,
			"componentType":5123,
			"count":600,
			"type":"SCALAR"
		},
		{
			"bufferView":48,
			"componentType":5126,
			"count":720,
			"max":[
				26.547706604003906,
				24.63096046447754,
				5.2454376220703125
			],
			"min":[
				-26.547706604003906,
				-6.919060230255127,
				-16.114595413208008
			],
			"type":"VEC3"
		},
		{
			"bufferView":49,
			"componentType":5126,
			"count":720,
			"type":"VEC3"
		},
		{
			"bufferView":50,
			"componentType":5126,
			"count":720,
			"type":"VEC2"
		},
		{
			"bufferView":51,
			"componentType":5121,
			"count":720,
			"type":"VEC4"
		},
		{
			"bufferView":52,
			"componentType":5126,
			"count":720,
			"type":"VEC4"
		},
		{
			"bufferView":53,
			"componentType":5123,
			"count":3408,
			"type":"SCALAR"
		},
		{
			"bufferView":54,
			"componentType":5126,
			"count":21,
			"type":"MAT4"
		},
		{
			"bufferView":55,
			"componentType":5126,
			"count":2,
			"max":[
				1.0333333333333334
			],
			"min":[
				0.03333333333333333
			],
			"type":"SCALAR"
		},
		{
			"bufferView":56,
			"componentType":5126,
			"count":2,
			"type":"VEC3"
		},
		{
			"bufferView":57,
			"componentType":5126,
			"count":2,
			"type":"VEC4"
		},
		{
			"bufferView":58,
			"componentType":5126,
			"count":2,
			"type":"VEC3"
		},
		{
			"bufferView":59,
			"componentType":5126,
			"count":31,
			"max":[
				1.0333333333333334
			],
			"min":[
				0.03333333333333333
			],
			"type":"SCALAR"
		},
		{
			"bufferView":60,
			"componentType":5126,
			"count":31,
			"type":"VEC3"
		},
		{
			"bufferView":61,
			"componentType":5126,
			"count":31,
			"type":"VEC4"
		},
		{
			"bufferView":62,
			"componentType":5126,
			"count":2,
			"type":"VEC3"
		},
		{
			"bufferView":63,
			"componentType":5126,
			"count":31,
			"type":"VEC3"
		},
		{
			"bufferView":64,
			"componentType":5126,
			"count":31,
			"type":"VEC4"
		},
		{
			"bufferView":65,
			"componentType":5126,
			"count":2,
			"type":"VEC3"
		},
		{
			"bufferView":66,
			"componentType":5126,
			"count":2,
			"type":"VEC3"
		},
		{
			"bufferView":67,
			"componentType":5126,
			"count":31,
			"type":"VEC4"
		},
		{
			"bufferView":68,
			"componentType":5126,
			"count":2,
			"type":"VEC3"
		},
		{
			"bufferView":69,
			"componentType":5126,
			"count":31,
			"type":"VEC3"
		},
		{
			"bufferView":70,
			"componentType":5126,
			"count":31,
			"type":"VEC4"
		},
		{
			"bufferView":71,
			"componentType":5126,
			"count":2,
			"type":"VEC3"
		},
		{
			"bufferView":72,
			"componentType":5126,
			"count":2,
			"type":"VEC3"
		},
		{
			"bufferView":73,
			"componentType":5126,
			"count":31,
			"type":"VEC4"
		},
		{
			"bufferView":74,
			"componentType":5126,
			"count":2,
			"type":"VEC3"
		},
		{
			"bufferView":75,
			"componentType":5126,
			"count":2,
			"type":"VEC3"
		},
		{
			"bufferView":76,
			"componentType":5126,
			"count":31,
			"type":"VEC4"
		},
		{
			"bufferView":77,
			"componentType":5126,
			"count":2,
			"type":"VEC3"
		},
		{
			"bufferView":78,
			"componentType":5126,
			"count":2,
			"type":"VEC3"
		},
		{
			"bufferView":79,
			"componentType":5126,
			"count":31,
			"type":"VEC4"
		},
		{
			"bufferView":80,
			"componentType":5126,
			"count":2,
			"type":"VEC3"
		},
		{
			"bufferView":81,
			"componentType":5126,
			"count":2,
			"type":"VEC3"
		},
		{
			"bufferView":82,
			"componentType":5126,
			"count":31,
			"type":"VEC4"
		},
		{
			"bufferView":83,
			"componentType":5126,
			"count":2,
			"type":"VEC3"
		},
		{
			"bufferView":84,
			"componentType":5126,
			"count":2,
			"type":"VEC3"
		},
		{
			"bufferView":85,
			"componentType":5126,
			"count":31,
			"type":"VEC4"
		},
		{
			"bufferView":86,
			"componentType":5126,
			"count":2,
			"type":"VEC3"
		},
		{
			"bufferView":87,
			"componentType":5126,
			"count":31,
			"type":"VEC3"
		},
		{
			"bufferView":88,
			"componentType":5126,
			"count":31,
			"type":"VEC4"
		},
		{
			"bufferView":89,
			"componentType":5126,
			"count":2,
			"type":"VEC3"
		},
		{
			"bufferView":90,
			"componentType":5126,
			"count":2,
			"type":"VEC3"
		},
		{
			"bufferView":91,
			"componentType":5126,
			"count":31,
			"type":"VEC4"
		},
		{
			"bufferView":92,
			"componentType":5126,
			"count":2,
			"type":"VEC3"
		},
		{
			"bufferView":93,
			"componentType":5126,
			"count":2,
			"type":"VEC3"
		},
		{
			"bufferView":94,
			"componentType":5126,
			"count":31,
			"type":"VEC4"
		},
		{
			"bufferView":95,
			"componentType":5126,
			"count":2,
			"type":"VEC3"
		},
		{
			"bufferView":96,
			"componentType":5126,
			"count":2,
			"type":"VEC3"
		},
		{
			"bufferView":97,
			"componentType":5126,
			"count":31,
			"type":"VEC4"
		},
		{
			"bufferView":98,
			"componentType":5126,
			"count":2,
			"type":"VEC3"
		},
		{
			"bufferView":99,
			"componentType":5126,
			"count":2,
			"type":"VEC3"
		},
		{
			"bufferView":100,
			"componentType":5126,
			"count":31,
			"type":"VEC4"
		},
		{
			"bufferView":101,
			"componentType":5126,
			"count":2,
			"type":"VEC3"
		},
		{
			"bufferView":102,
			"componentType":5126,
			"count":2,
			"type":"VEC3"
		},
		{
			"bufferView":103,
			"componentType":5126,
			"count":31,
			"type":"VEC4"
		},
		{
			"bufferView":104,
			"componentType":5126,
			"count":2,
			"type":"VEC3"
		},
		{
			"bufferView":105,
			"componentType":5126,
			"count":2,
			"type":"VEC3"
		},
		{
			"bufferView":106,
			"componentType":5126,
			"count":31,
			"type":"VEC4"
		},
		{
			"bufferView":107,
			"componentType":5126,
			"count":2,
			"type":"VEC3"
		},
		{
			"bufferView":108,
			"componentType":5126,
			"count":2,
			"type":"VEC3"
		},
		{
			"bufferView":109,
			"componentType":5126,
			"count":31,
			"type":"VEC4"
		},
		{
			"bufferView":110,
			"componentType":5126,
			"count":2,
			"type":"VEC3"
		},
		{
			"bufferView":111,
			"componentType":5126,
			"count":2,
			"type":"VEC3"
		},
		{
			"bufferView":112,
			"componentType":5126,
			"count":31,
			"type":"VEC4"
		},
		{
			"bufferView":113,
			"componentType":5126,
			"count":2,
			"type":"VEC3"
		},
		{
			"bufferView":114,
			"componentType":5126,
			"count":2,
			"type":"VEC3"
		},
		{
			"bufferView":115,
			"componentType":5126,
			"count":31,
			"type":"VEC4"
		},
		{
			"bufferView":116,
			"componentType":5126,
			"count":2,
			"type":"VEC3"
		},
		{
			"bufferView":117,
			"componentType":5126,
			"count":2,
			"type":"VEC3"
		},
		{
			"bufferView":118,
			"componentType":5126,
			"count":31,
			"type":"VEC4"
		},
		{
			"bufferView":119,
			"componentType":5126,
			"count":2,
			"type":"VEC3"
		},
		{
			"bufferView":120,
			"componentType":5126,
			"count":2,
			"type":"VEC3"
		},
		{
			"bufferView":121,
			"componentType":5126,
			"count":2,
			"type":"VEC4"
		},
		{
			"bufferView":122,
			"componentType":5126,
			"count":2,
			"type":"VEC3"
		}
	],
	"bufferViews":[
		{
			"buffer":0,
			"byteLength":8736,
			"byteOffset":0,
			"target":34962
		},
		{
			"buffer":0,
			"byteLength":8736,
			"byteOffset":8736,
			"target":34962
		},
		{
			"buffer":0,
			"byteLength":5824,
			"byteOffset":17472,
			"target":34962
		},
		{
			"buffer":0,
			"byteLength":2912,
			"byteOffset":23296,
			"target":34962
		},
		{
			"buffer":0,
			"byteLength":11648,
			"byteOffset":26208,
			"target":34962
		},
		{
			"buffer":0,
			"byteLength":4848,
			"byteOffset":37856,
			"target":34963
		},
		{
			"buffer":0,
			"byteLength":3060,
			"byteOffset":42704,
			"target":34962
		},
		{
			"buffer":0,
			"byteLength":3060,
			"byteOffset":45764,
			"target":34962
		},
		{
			"buffer":0,
			"byteLength":2040,
			"byteOffset":48824,
			"target":34962
		},
		{
			"buffer":0,
			"byteLength":1020,
			"byteOffset":50864,
			"target":34962
		},
		{
			"buffer":0,
			"byteLength":4080,
			"byteOffset":51884,
			"target":34962
		},
		{
			"buffer":0,
			"byteLength":2856,
			"byteOffset":55964,
			"target":34963
		},
		{
			"buffer":0,
			"byteLength":1896,
			"byteOffset":58820,
			"target":34962
		},
		{
			"buffer":0,
			"byteLength":1896,
			"byteOffset":60716,
			"target":34962
		},
		{
			"buffer":0,
			"byteLength":1264,
			"byteOffset":62612,
			"target":34962
		},
		{
			"buffer":0,
			"byteLength":632,
			"byteOffset":63876,
			"target":34962
		},
		{
			"buffer":0,
			"byteLength":2528,
			"byteOffset":64508,
			"target":34962
		},
		{
			"buffer":0,
			"byteLength":1344,
			"byteOffset":67036,
			"target":34963
		},
		{
			"buffer":0,
			"byteLength":2856,
			"byteOffset":68380,
			"target":34962
		},
		{
			"buffer":0,
			"byteLength":2856,
			"byteOffset":71236,
			"target":34962
		},
		{
			"buffer":0,
			"byteLength":1904,
			"byteOffset":74092,
			"target":34962
		},
		{
			"buffer":0,
			"byteLength":952,
			"byteOffset":75996,
			"target":34962
		},
		{
			"buffer":0,
			"byteLength":3808,
			"byteOffset":76948,
			"target":34962
		},
		{
			"buffer":0,
			"byteLength":2472,
			"byteOffset":80756,
			"target":34963
		},
		{
			"buffer":0,
			"byteLength":4824,
			"byteOffset":83228,
			"target":34962
		},
		{
			"buffer":0,
			"byteLength":4824,
			"byteOffset":88052,
			"target":34962
		},
		{
			"buffer":0,
			"byteLength":3216,
			"byteOffset":92876,
			"target":34962
		},
		{
			"buffer":0,
			"byteLength":1608,
			"byteOffset":96092,
			"target":34962
		},
		{
			"buffer":0,
			"byteLength":6432,
			"byteOffset":97700,
			"target":34962
		},
		{
			"buffer":0,
			"byteLength":3984,
			"byteOffset":104132,
			"target":34963
		},
		{
			"buffer":0,
			"byteLength":5136,
			"byteOffset":108116,
			"target":34962
		},
		{
			"buffer":0,
			"byteLength":5136,
			"byteOffset":113252,
			"target":34962
		},
		{
			"buffer":0,
			"byteLength":3424,
			"byteOffset":118388,
			"target":34962
		},
		{
			"buffer":0,
			"byteLength":1712,
			"byteOffset":121812,
			"target":34962
		},
		{
			"buffer":0,
			"byteLength":6848,
			"byteOffset":123524,
			"target":34962
		},
		{
			"buffer":0,
			"byteLength":4248,
			"byteOffset":130372,
			"target":34963
		},
		{
			"buffer":0,
			"byteLength":5964,
			"byteOffset":134620,
			"target":34962
		},
		{
			"buffer":0,
			"byteLength":5964,
			"byteOffset":140584,
			"target":34962
		},
		{
			"buffer":0,
			"byteLength":3976,
			"byteOffset":146548,
			"target":34962
		},
		{
			"buffer":0,
			"byteLength":1988,
			"byteOffset":150524,
			"target":34962
		},
		{
			"buffer":0,
			"byteLength":7952,
			"byteOffset":152512,
			"target":34962
		},
		{
			"buffer":0,
			"byteLength":4824,
			"byteOffset":160464,
			"target":34963
		},
		{
			"buffer":0,
			"byteLength":5112,
			"byteOffset":165288,
			"target":34962
		},
		{
			"buffer":0,
			"byteLength":5112,
			"byteOffset":170400,
			"target":34962
		},
		{
			"buffer":0,
			"byteLength":3408,
			"byteOffset":175512,
			"target":34962
		},
		{
			"buffer":0,
			"byteLength":1704,
			"byteOffset":178920,
			"target":34962
		},
		{
			"buffer":0,
			"byteLength":6816,
			"byteOffset":180624,
			"target":34962
		},
		{
			"buffer":0,
			"byteLength":1200,
			"byteOffset":187440,
			"target":34963
		},
		{
			"buffer":0,
			"byteLength":8640,
			"byteOffset":188640,
			"target":34962
		},
		{
			"buffer":0,
			"byteLength":8640,
			"byteOffset":197280,
			"target":34962
		},
		{
			"buffer":0,
			"byteLength":5760,
			"byteOffset":205920,
			"target":34962
		},
		{
			"buffer":0,
			"byteLength":2880,
			"byteOffset":211680,
			"target":34962
		},
		{
			"buffer":0,
			"byteLength":11520,
			"byteOffset":214560,
			"target":34962
		},
		{
			"buffer":0,
			"byteLength":6816,
			"byteOffset":226080,
			"target":34963
		},
		{
			"buffer":0,
			"byteLength":1344,
			"byteOffset":232896
		},
		{
			"buffer":0,
			"byteLength":8,
			"byteOffset":234240
		},
		{
			"buffer":0,
			"byteLength":24,
			"byteOffset":234248
		},
		{
			"buffer":0,
			"byteLength":32,
			"byteOffset":234272
		},
		{
			"buffer":0,
			"byteLength":24,
			"byteOffset":234304
		},
		{
			"buffer":0,
			"byteLength":124,
			"byteOffset":234328
		},
		{
			"buffer":0,
			"byteLength":372,
			"byteOffset":234452
		},
		{
			"buffer":0,
			"byteLength":496,
			"byteOffset":234824
		},
		{
			"buffer":0,
			"byteLength":24,
			"byteOffset":235320
		},
		{
			"buffer":0,
			"byteLength":372,
			"byteOffset":235344
		},
		{
			"buffer":0,
			"byteLength":496,
			"byteOffset":235716
		},
		{
			"buffer":0,
			"byteLength":24,
			"byteOffset":236212
		},
		{
			"buffer":0,
			"byteLength":24,
			"byteOffset":236236
		},
		{
			"buffer":0,
			"byteLength":496,
			"byteOffset":236260
		},
		{
			"buffer":0,
			"byteLength":24,
			"byteOffset":236756
		},
		{
			"buffer":0,
			"byteLength":372,
			"byteOffset":236780
		},
		{
			"buffer":0,
			"byteLength":496,
			"byteOffset":237152
		},
		{
			"buffer":0,
			"byteLength":24,
			"byteOffset":237648
		},
		{
			"buffer":0,
			"byteLength":24,
			"byteOffset":237672
		},
		{
			"buffer":0,
			"byteLength":496,
			"byteOffset":237696
		},
		{
			"buffer":0,
			"byteLength":24,
			"byteOffset":238192
		},
		{
			"buffer":0,
			"byteLength":24,
			"byteOffset":238216
		},
		{
			"buffer":0,
			"byteLength":496,
			"byteOffset":238240
		},
		{
			"buffer":0,
			"byteLength":24,
			"byteOffset":238736
		},
		{
			"buffer":0,
			"byteLength":24,
			"byteOffset":238760
		},
		{
			"buffer":0,
			"byteLength":496,
			"byteOffset":238784
		},
		{
			"buffer":0,
			"byteLength":24,
			"byteOffset":239280
		},
		{
			"buffer":0,
			"byteLength":24,
			"byteOffset":239304
		},
		{
			"buffer":0,
			"byteLength":496,
			"byteOffset":239328
		},
		{
			"buffer":0,
			"byteLength":24,
			"byteOffset":239824
		},
		{
			"buffer":0,
			"byteLength":24,
			"byteOffset":239848
		},
		{
			"buffer":0,
			"byteLength":496,
			"byteOffset":239872
		},
		{
			"buffer":0,
			"byteLength":24,
			"byteOffset":240368
		},
		{
			"buffer":0,
			"byteLength":372,
			"byteOffset":240392
		},
		{
			"buffer":0,
			"byteLength":496,
			"byteOffset":240764
		},
		{
			"buffer":0,
			"byteLength":24,
			"byteOffset":241260
		},
		{
			"buffer":0,
			"byteLength":24,
			"byteOffset":241284
		},
		{
			"buffer":0,
			"byteLength":496,
			"byteOffset":241308
		},
		{
			"buffer":0,
			"byteLength":24,
			"byteOffset":241804
		},
		{
			"buffer":0,
			"byteLength":24,
			"byteOffset":241828
		},
		{
			"buffer":0,
			"byteLength":496,
			"byteOffset":241852
		},
		{
			"buffer":0,
			"byteLength":24,
			"byteOffset":242348
		},
		{
			"buffer":0,
			"byteLength":24,
			"byteOffset":242372
		},
		{
			"buffer":0,
			"byteLength":496,
			"byteOffset":242396
		},
		{
			"buffer":0,
			"byteLength":24,
			"byteOffset":242892
		},
		{
			"buffer":0,
			"byteLength":24,
			"byteOffset":242916
		},
		{
			"buffer":0,
			"byteLength":496,
			"byteOffset":242940
		},
		{
			"buffer":0,
			"byteLength":24,
			"byteOffset":243436
		},
		{
			"buffer":0,
			"byteLength":24,
			"byteOffset":243460
		},
		{
			"buffer":0,
			"byteLength":496,
			"byteOffset":243484
		},
		{
			"buffer":0,
			"byteLength":24,
			"byteOffset":243980
		},
		{
			"buffer":0,
			"byteLength":24,
			"byteOffset":244004
		},
		{
			"buffer":0,
			"byteLength":496,
			"byteOffset":244028
		},
		{
			"buffer":0,
			"byteLength":24,
			"byteOffset":244524
		},
		{
			"buffer":0,
			"byteLength":24,
			"byteOffset":244548
		},
		{
			"buffer":0,
			"byteLength":496,
			"byteOffset":244572
		},
		{
			"buffer":0,
			"byteLength":24,
			"byteOffset":245068
		},
		{
			"buffer":0,
			"byteLength":24,
			"byteOffset":245092
		},
		{
			"buffer":0,
			"byteLength":496,
			"byteOffset":245116
		},
		{
			"buffer":0,
			"byteLength":24,
			"byteOffset":245612
		},
		{
			"buffer":0,
			"byteLength":24,
			"byteOffset":245636
		},
		{
			"buffer":0,
			"byteLength":496,
			"byteOffset":245660
		},
		{
			"buffer":0,
			"byteLength":24,
			"byteOffset":246156
		},
		{
			"buffer":0,
			"byteLength":24,
			"byteOffset":246180
		},
		{
			"buffer":0,
			"byteLength":496,
			"byteOffset":246204
		},
		{
			"buffer":0,
			"byteLength":24,
			"byteOffset":246700
		},
		{
			"buffer":0,
			"byteLength":24,
			"byteOffset":246724
		},
		{
			"buffer":0,
			"byteLength":32,
			"byteOffset":246748
		},
		{
			"buffer":0,
			"byteLength":24,
			"byteOffset":246780
		}
	],
	"buffers":[
		{
			"byteLength":246804,
			"uri":"Cindy2_walk.bin"
		}
	]
}
