{
	"asset":{
		"generator":"Khronos glTF Blender I/O v4.1.62",
		"version":"2.0"
	},
	"scene":0,
	"scenes":[
		{
			"name":"Scene",
			"nodes":[
				27
			]
		}
	],
	"nodes":[
		{
			"name":"arm_right_hand_end",
			"rotation":[
				1.4435499906539917e-08,
				-2.6542693376541138e-08,
				-8.998904377222061e-08,
				1
			],
			"translation":[
				-7.450580596923828e-09,
				3.108269214630127,
				1.4901161193847656e-08
			]
		},
		{
			"children":[
				0
			],
			"name":"arm_right_hand",
			"rotation":[
				-2.421439049271612e-08,
				6.286428089197216e-08,
				2.0093287389499892e-07,
				1
			],
			"scale":[
				0.9999999403953552,
				0.9999998807907104,
				0.9999998807907104
			],
			"translation":[
				-5.960464477539062e-07,
				6.216540336608887,
				1.4901161193847656e-08
			]
		},
		{
			"children":[
				1
			],
			"name":"arm_right_bot",
			"rotation":[
				0.017791276797652245,
				-0.03134913742542267,
				-0.06935207545757294,
				0.9969407916069031
			],
			"scale":[
				1,
				0.9999999403953552,
				1
			],
			"translation":[
				1.30385160446167e-08,
				7.194865703582764,
				-4.842877388000488e-08
			]
		},
		{
			"children":[
				2
			],
			"name":"arm_right_top",
			"rotation":[
				0.01935908943414688,
				-0.030360449105501175,
				0.0609578974545002,
				0.997490644454956
			],
			"scale":[
				1,
				1,
				0.9999998807907104
			],
			"translation":[
				-1.3615936040878296e-06,
				4.7286248207092285,
				-2.584420144557953e-07
			]
		},
		{
			"children":[
				3
			],
			"name":"shoulder_right",
			"rotation":[
				-0.1338767409324646,
				0.1626143455505371,
				0.8120434880256653,
				0.5442600846290588
			],
			"scale":[
				1.0000001192092896,
				0.9999998807907104,
				0.9999998807907104
			],
			"translation":[
				-4.394093036651611,
				-0.7287972569465637,
				-1.6811816692352295
			]
		},
		{
			"name":"head_end",
			"rotation":[
				-7.245072597417135e-15,
				-4.683754046881869e-17,
				9.313225746154785e-10,
				1
			],
			"scale":[
				1,
				1,
				0.9999999403953552
			],
			"translation":[
				-1.612855804467017e-08,
				3.0276105403900146,
				1.3850166169504519e-07
			]
		},
		{
			"children":[
				5
			],
			"name":"head",
			"rotation":[
				-4.470348713425665e-08,
				-6.027698340460574e-10,
				5.587935891782081e-09,
				1
			],
			"scale":[
				1,
				0.9999999403953552,
				1
			],
			"translation":[
				-4.1716013754466985e-08,
				6.055220127105713,
				3.178095937528269e-07
			]
		},
		{
			"children":[
				6
			],
			"name":"neck",
			"rotation":[
				-0.19796080887317657,
				0.0016559113282710314,
				0.01844027265906334,
				0.9800350666046143
			],
			"scale":[
				0.9999998807907104,
				0.9999999403953552,
				0.9999999403953552
			],
			"translation":[
				3.166496753692627e-08,
				3.976961612701416,
				-1.2078089639544487e-07
			]
		},
		{
			"name":"arm_left_hand_end",
			"rotation":[
				3.119930980233221e-08,
				4.889444227273998e-08,
				1.7124695261827583e-07,
				1
			],
			"scale":[
				0.9999999403953552,
				0.9999998807907104,
				0.9999999403953552
			],
			"translation":[
				6.034970283508301e-07,
				3.1082704067230225,
				1.341104507446289e-07
			]
		},
		{
			"children":[
				8
			],
			"name":"arm_left_hand",
			"rotation":[
				-8.195639367158947e-08,
				-1.1920928955078125e-07,
				-6.030313670635223e-08,
				1
			],
			"scale":[
				1,
				0.9999999403953552,
				0.9999998807907104
			],
			"translation":[
				9.909272193908691e-07,
				6.216541290283203,
				0
			]
		},
		{
			"children":[
				9
			],
			"name":"arm_left_bot",
			"rotation":[
				0.017791301012039185,
				0.03134915232658386,
				0.06935180723667145,
				0.9969408512115479
			],
			"scale":[
				1,
				0.9999999403953552,
				0.9999999403953552
			],
			"translation":[
				-2.7194619178771973e-07,
				7.194863796234131,
				-1.862645149230957e-08
			]
		},
		{
			"children":[
				10
			],
			"name":"arm_left_top",
			"rotation":[
				0.01935911737382412,
				0.03036033920943737,
				-0.06095777079463005,
				0.997490644454956
			],
			"translation":[
				1.862645149230957e-09,
				4.728622913360596,
				4.586763679981232e-08
			]
		},
		{
			"children":[
				11
			],
			"name":"shoulder_left",
			"rotation":[
				-0.13387662172317505,
				-0.1630610078573227,
				-0.8004027605056763,
				0.5611092448234558
			],
			"scale":[
				1.0000001192092896,
				1,
				1.0000001192092896
			],
			"translation":[
				4.395876407623291,
				-0.5522782802581787,
				-1.7168346643447876
			]
		},
		{
			"children":[
				4,
				7,
				12
			],
			"name":"body_top2",
			"rotation":[
				0.21444813907146454,
				-0.0012103889603167772,
				-0.017087440937757492,
				0.9765851497650146
			],
			"scale":[
				1,
				1,
				0.9999999403953552
			],
			"translation":[
				7.275957614183426e-09,
				8.05339241027832,
				-3.3871617688419065e-07
			]
		},
		{
			"children":[
				13
			],
			"name":"body_top1",
			"rotation":[
				-0.01983676292002201,
				-1.2968905139132403e-05,
				0.00899472739547491,
				0.9997628331184387
			],
			"scale":[
				1,
				1,
				0.9999999403953552
			],
			"translation":[
				-1.189255272038281e-08,
				3.5173282623291016,
				2.8994350032007787e-08
			]
		},
		{
			"children":[
				14
			],
			"name":"body_top0",
			"rotation":[
				-0.06884439289569855,
				-0.0001397740124957636,
				-0.0004805171920452267,
				0.997627317905426
			],
			"scale":[
				0.9999999403953552,
				1,
				0.9999999403953552
			],
			"translation":[
				6.249756552278996e-07,
				5.571663856506348,
				8.42050212668255e-07
			]
		},
		{
			"name":"leg_left_foot_end",
			"rotation":[
				-2.8809810093122223e-09,
				3.116403135550172e-08,
				1.920868707014833e-15,
				1
			],
			"scale":[
				1,
				0.9999998807907104,
				1
			],
			"translation":[
				8.427677045119708e-08,
				3.0375213623046875,
				2.190345327335308e-08
			]
		},
		{
			"children":[
				16
			],
			"name":"leg_left_foot",
			"rotation":[
				-2.0810662082482168e-09,
				0.9962033629417419,
				-0.08705652505159378,
				7.521126121901034e-08
			],
			"scale":[
				1,
				1.0000003576278687,
				1
			],
			"translation":[
				1.242363225628651e-07,
				8.656673431396484,
				8.022569772947463e-07
			]
		},
		{
			"children":[
				17
			],
			"name":"leg_left_bot",
			"rotation":[
				0.12829159200191498,
				-1.9074830959198152e-07,
				4.0246742827321214e-08,
				0.9917364716529846
			],
			"scale":[
				1,
				0.9999999403953552,
				1
			],
			"translation":[
				3.115860636171419e-08,
				7.798337459564209,
				2.622346073621884e-08
			]
		},
		{
			"children":[
				18
			],
			"name":"leg_left_top",
			"rotation":[
				0.9935795664787292,
				0.0015224413946270943,
				6.343035056488588e-05,
				0.11312517523765564
			],
			"scale":[
				0.9999999403953552,
				0.9999998807907104,
				0.9999955892562866
			],
			"translation":[
				2.2300586700439453,
				-4.071378707885742,
				0.15083804726600647
			]
		},
		{
			"name":"leg_right_foot_end",
			"rotation":[
				-9.227143493717449e-09,
				3.900628797737227e-08,
				4.135228824539124e-15,
				1
			],
			"translation":[
				8.652729377445212e-08,
				3.0375211238861084,
				2.987883362948196e-08
			]
		},
		{
			"children":[
				20
			],
			"name":"leg_right_foot",
			"rotation":[
				1.634051338683662e-09,
				-0.9962034225463867,
				0.0870562493801117,
				7.521126121901034e-08
			],
			"scale":[
				1,
				1.0000001192092896,
				1
			],
			"translation":[
				-3.2040566111390945e-07,
				8.656683921813965,
				2.89181002699479e-07
			]
		},
		{
			"children":[
				21
			],
			"name":"leg_right_bot",
			"rotation":[
				0.12829120457172394,
				-3.457068658008211e-07,
				3.4366287593456946e-08,
				0.9917365312576294
			],
			"translation":[
				-1.75310788108618e-07,
				7.798340797424316,
				-5.5489294936705846e-08
			]
		},
		{
			"children":[
				22
			],
			"name":"leg_right_top",
			"rotation":[
				0.993579626083374,
				0.0015224383678287268,
				6.340930121950805e-05,
				0.11312492936849594
			],
			"scale":[
				0.9999999403953552,
				0.9999998807907104,
				0.9999991059303284
			],
			"translation":[
				-2.37821102142334,
				-4.085385799407959,
				0.15184614062309265
			]
		},
		{
			"children":[
				15,
				19,
				23
			],
			"name":"body",
			"rotation":[
				0.07182183861732483,
				-7.984164440699715e-09,
				-0.0015237147454172373,
				0.9974163174629211
			],
			"translation":[
				-7.580872535705566,
				23.829654693603516,
				-2.0916476249694824
			]
		},
		{
			"children":[
				24
			],
			"name":"root",
			"rotation":[
				-0.7071031928062439,
				0,
				0,
				0.7071103453636169
			],
			"translation":[
				7.6673784255981445,
				4.229114532470703,
				39.18595886230469
			]
		},
		{
			"mesh":0,
			"name":"Cindy2",
			"skin":0
		},
		{
			"children":[
				26,
				25
			],
			"name":"rig",
			"rotation":[
				0.7071068286895752,
				0,
				0,
				0.7071068286895752
			]
		}
	],
	"materials":[
		{
			"doubleSided":true,
			"name":"legsMat.002",
			"pbrMetallicRoughness":{
				"baseColorFactor":[
					0,
					0,
					0,
					1
				],
				"metallicFactor":0
			}
		},
		{
			"doubleSided":true,
			"name":"headMat.003",
			"pbrMetallicRoughness":{
				"metallicFactor":0
			}
		},
		{
			"doubleSided":true,
			"name":"eyesMat.003",
			"pbrMetallicRoughness":{
				"baseColorFactor":[
					0,
					0,
					0,
					1
				],
				"metallicFactor":0
			}
		},
		{
			"doubleSided":true,
			"name":"hairMat.001",
			"pbrMetallicRoughness":{
				"baseColorFactor":[
					0.800000011920929,
					0.800000011920929,
					0.800000011920929,
					1
				],
				"metallicFactor":0
			}
		},
		{
			"doubleSided":true,
			"name":"dressMat_01.001",
			"pbrMetallicRoughness":{
				"baseColorFactor":[
					0.800000011920929,
					0.800000011920929,
					0.800000011920929,
					1
				],
				"metallicFactor":0
			}
		},
		{
			"doubleSided":true,
			"name":"dressMat_02.001",
			"pbrMetallicRoughness":{
				"baseColorFactor":[
					0.800000011920929,
					0.800000011920929,
					0.800000011920929,
					1
				],
				"metallicFactor":0
			}
		},
		{
			"doubleSided":true,
			"name":"dressMat_03",
			"pbrMetallicRoughness":{
				"baseColorFactor":[
					0.800000011920929,
					0.800000011920929,
					0.800000011920929,
					1
				],
				"metallicFactor":0
			}
		},
		{
			"doubleSided":true,
			"name":"spikesMat.001",
			"pbrMetallicRoughness":{
				"baseColorFactor":[
					0.800000011920929,
					0.800000011920929,
					0.800000011920929,
					1
				],
				"metallicFactor":0
			}
		},
		{
			"doubleSided":true,
			"name":"leavesMat.001",
			"pbrMetallicRoughness":{
				"baseColorFactor":[
					0.800000011920929,
					0.800000011920929,
					0.800000011920929,
					1
				],
				"metallicFactor":0
			}
		}
	],
	"meshes":[
		{
			"name":"Cindy2",
			"primitives":[
				{
					"attributes":{
						"POSITION":0,
						"NORMAL":1,
						"TEXCOORD_0":2,
						"JOINTS_0":3,
						"WEIGHTS_0":4
					},
					"indices":5,
					"material":0
				},
				{
					"attributes":{
						"POSITION":6,
						"NORMAL":7,
						"TEXCOORD_0":8,
						"JOINTS_0":9,
						"WEIGHTS_0":10
					},
					"indices":11,
					"material":1
				},
				{
					"attributes":{
						"POSITION":12,
						"NORMAL":13,
						"TEXCOORD_0":14,
						"JOINTS_0":15,
						"WEIGHTS_0":16
					},
					"indices":17,
					"material":2
				},
				{
					"attributes":{
						"POSITION":18,
						"NORMAL":19,
						"TEXCOORD_0":20,
						"JOINTS_0":21,
						"WEIGHTS_0":22
					},
					"indices":23,
					"material":3
				},
				{
					"attributes":{
						"POSITION":24,
						"NORMAL":25,
						"TEXCOORD_0":26,
						"JOINTS_0":27,
						"WEIGHTS_0":28
					},
					"indices":29,
					"material":4
				},
				{
					"attributes":{
						"POSITION":30,
						"NORMAL":31,
						"TEXCOORD_0":32,
						"JOINTS_0":33,
						"WEIGHTS_0":34
					},
					"indices":35,
					"material":5
				},
				{
					"attributes":{
						"POSITION":36,
						"NORMAL":37,
						"TEXCOORD_0":38,
						"JOINTS_0":39,
						"WEIGHTS_0":40
					},
					"indices":41,
					"material":6
				},
				{
					"attributes":{
						"POSITION":42,
						"NORMAL":43,
						"TEXCOORD_0":44,
						"JOINTS_0":45,
						"WEIGHTS_0":46
					},
					"indices":47,
					"material":7
				},
				{
					"attributes":{
						"POSITION":48,
						"NORMAL":49,
						"TEXCOORD_0":50,
						"JOINTS_0":51,
						"WEIGHTS_0":52
					},
					"indices":53,
					"material":8
				}
			]
		}
	],
	"skins":[
		{
			"inverseBindMatrices":54,
			"joints":[
				25,
				24,
				15,
				14,
				13,
				4,
				3,
				2,
				1,
				0,
				7,
				6,
				5,
				12,
				11,
				10,
				9,
				8,
				19,
				18,
				17,
				16,
				23,
				22,
				21,
				20
			],
			"name":"rig"
		}
	],
	"accessors":[
		{
			"bufferView":0,
			"componentType":5126,
			"count":728,
			"max":[
				24.772253036499023,
				2.973499298095703,
				8.183713912963867
			],
			"min":[
				-24.772253036499023,
				-39.18595886230469,
				-3.27756929397583
			],
			"type":"VEC3"
		},
		{
			"bufferView":1,
			"componentType":5126,
			"count":728,
			"type":"VEC3"
		},
		{
			"bufferView":2,
			"componentType":5126,
			"count":728,
			"type":"VEC2"
		},
		{
			"bufferView":3,
			"componentType":5121,
			"count":728,
			"type":"VEC4"
		},
		{
			"bufferView":4,
			"componentType":5126,
			"count":728,
			"type":"VEC4"
		},
		{
			"bufferView":5,
			"componentType":5123,
			"count":2424,
			"type":"SCALAR"
		},
		{
			"bufferView":6,
			"componentType":5126,
			"count":255,
			"max":[
				13.012490272521973,
				30.510356903076172,
				15.515092849731445
			],
			"min":[
				-13.012490272521973,
				4.9854583740234375,
				-9.231363296508789
			],
			"type":"VEC3"
		},
		{
			"bufferView":7,
			"componentType":5126,
			"count":255,
			"type":"VEC3"
		},
		{
			"bufferView":8,
			"componentType":5126,
			"count":255,
			"type":"VEC2"
		},
		{
			"bufferView":9,
			"componentType":5121,
			"count":255,
			"type":"VEC4"
		},
		{
			"bufferView":10,
			"componentType":5126,
			"count":255,
			"type":"VEC4"
		},
		{
			"bufferView":11,
			"componentType":5123,
			"count":1428,
			"type":"SCALAR"
		},
		{
			"bufferView":12,
			"componentType":5126,
			"count":158,
			"max":[
				10.389229774475098,
				18.615406036376953,
				16.114591598510742
			],
			"min":[
				-10.389229774475098,
				9.940415382385254,
				8.79764175415039
			],
			"type":"VEC3"
		},
		{
			"bufferView":13,
			"componentType":5126,
			"count":158,
			"type":"VEC3"
		},
		{
			"bufferView":14,
			"componentType":5126,
			"count":158,
			"type":"VEC2"
		},
		{
			"bufferView":15,
			"componentType":5121,
			"count":158,
			"type":"VEC4"
		},
		{
			"bufferView":16,
			"componentType":5126,
			"count":158,
			"type":"VEC4"
		},
		{
			"bufferView":17,
			"componentType":5123,
			"count":672,
			"type":"SCALAR"
		},
		{
			"bufferView":18,
			"componentType":5126,
			"count":238,
			"max":[
				18.501216888427734,
				38.41787338256836,
				11.438596725463867
			],
			"min":[
				-18.501216888427734,
				23.102924346923828,
				-3.876349925994873
			],
			"type":"VEC3"
		},
		{
			"bufferView":19,
			"componentType":5126,
			"count":238,
			"type":"VEC3"
		},
		{
			"bufferView":20,
			"componentType":5126,
			"count":238,
			"type":"VEC2"
		},
		{
			"bufferView":21,
			"componentType":5121,
			"count":238,
			"type":"VEC4"
		},
		{
			"bufferView":22,
			"componentType":5126,
			"count":238,
			"type":"VEC4"
		},
		{
			"bufferView":23,
			"componentType":5123,
			"count":1236,
			"type":"SCALAR"
		},
		{
			"bufferView":24,
			"componentType":5126,
			"count":402,
			"max":[
				4.514264106750488,
				4.518543243408203,
				13.264629364013672
			],
			"min":[
				-19.253801345825195,
				-27.009824752807617,
				-10.907368659973145
			],
			"type":"VEC3"
		},
		{
			"bufferView":25,
			"componentType":5126,
			"count":402,
			"type":"VEC3"
		},
		{
			"bufferView":26,
			"componentType":5126,
			"count":402,
			"type":"VEC2"
		},
		{
			"bufferView":27,
			"componentType":5121,
			"count":402,
			"type":"VEC4"
		},
		{
			"bufferView":28,
			"componentType":5126,
			"count":402,
			"type":"VEC4"
		},
		{
			"bufferView":29,
			"componentType":5123,
			"count":1992,
			"type":"SCALAR"
		},
		{
			"bufferView":30,
			"componentType":5126,
			"count":428,
			"max":[
				15.712119102478027,
				4.410102844238281,
				14.993816375732422
			],
			"min":[
				-6.956650733947754,
				-25.32077407836914,
				-8.57469367980957
			],
			"type":"VEC3"
		},
		{
			"bufferView":31,
			"componentType":5126,
			"count":428,
			"type":"VEC3"
		},
		{
			"bufferView":32,
			"componentType":5126,
			"count":428,
			"type":"VEC2"
		},
		{
			"bufferView":33,
			"componentType":5121,
			"count":428,
			"type":"VEC4"
		},
		{
			"bufferView":34,
			"componentType":5126,
			"count":428,
			"type":"VEC4"
		},
		{
			"bufferView":35,
			"componentType":5123,
			"count":2124,
			"type":"SCALAR"
		},
		{
			"bufferView":36,
			"componentType":5126,
			"count":497,
			"max":[
				15.611431121826172,
				4.301670074462891,
				10.162740707397461
			],
			"min":[
				-15.611778259277344,
				-27.3785400390625,
				-14.480367660522461
			],
			"type":"VEC3"
		},
		{
			"bufferView":37,
			"componentType":5126,
			"count":497,
			"type":"VEC3"
		},
		{
			"bufferView":38,
			"componentType":5126,
			"count":497,
			"type":"VEC2"
		},
		{
			"bufferView":39,
			"componentType":5121,
			"count":497,
			"type":"VEC4"
		},
		{
			"bufferView":40,
			"componentType":5126,
			"count":497,
			"type":"VEC4"
		},
		{
			"bufferView":41,
			"componentType":5123,
			"count":2412,
			"type":"SCALAR"
		},
		{
			"bufferView":42,
			"componentType":5126,
			"count":426,
			"max":[
				19.759292602539062,
				39.18595504760742,
				11.978384017944336
			],
			"min":[
				-19.759292602539062,
				23.515132904052734,
				-5.295462608337402
			],
			"type":"VEC3"
		},
		{
			"bufferView":43,
			"componentType":5126,
			"count":426,
			"type":"VEC3"
		},
		{
			"bufferView":44,
			"componentType":5126,
			"count":426,
			"type":"VEC2"
		},
		{
			"bufferView":45,
			"componentType":5121,
			"count":426,
			"type":"VEC4"
		},
		{
			"bufferView":46,
			"componentType":5126,
			"count":426,
			"type":"VEC4"
		},
		{
			"bufferView":47,
			"componentType":5123,
			"count":600,
			"type":"SCALAR"
		},
		{
			"bufferView":48,
			"componentType":5126,
			"count":720,
			"max":[
				26.547706604003906,
				24.630966186523438,
				5.245434284210205
			],
			"min":[
				-26.547706604003906,
				-6.919061183929443,
				-16.114593505859375
			],
			"type":"VEC3"
		},
		{
			"bufferView":49,
			"componentType":5126,
			"count":720,
			"type":"VEC3"
		},
		{
			"bufferView":50,
			"componentType":5126,
			"count":720,
			"type":"VEC2"
		},
		{
			"bufferView":51,
			"componentType":5121,
			"count":720,
			"type":"VEC4"
		},
		{
			"bufferView":52,
			"componentType":5126,
			"count":720,
			"type":"VEC4"
		},
		{
			"bufferView":53,
			"componentType":5123,
			"count":3408,
			"type":"SCALAR"
		},
		{
			"bufferView":54,
			"componentType":5126,
			"count":26,
			"type":"MAT4"
		}
	],
	"bufferViews":[
		{
			"buffer":0,
			"byteLength":8736,
			"byteOffset":0,
			"target":34962
		},
		{
			"buffer":0,
			"byteLength":8736,
			"byteOffset":8736,
			"target":34962
		},
		{
			"buffer":0,
			"byteLength":5824,
			"byteOffset":17472,
			"target":34962
		},
		{
			"buffer":0,
			"byteLength":2912,
			"byteOffset":23296,
			"target":34962
		},
		{
			"buffer":0,
			"byteLength":11648,
			"byteOffset":26208,
			"target":34962
		},
		{
			"buffer":0,
			"byteLength":4848,
			"byteOffset":37856,
			"target":34963
		},
		{
			"buffer":0,
			"byteLength":3060,
			"byteOffset":42704,
			"target":34962
		},
		{
			"buffer":0,
			"byteLength":3060,
			"byteOffset":45764,
			"target":34962
		},
		{
			"buffer":0,
			"byteLength":2040,
			"byteOffset":48824,
			"target":34962
		},
		{
			"buffer":0,
			"byteLength":1020,
			"byteOffset":50864,
			"target":34962
		},
		{
			"buffer":0,
			"byteLength":4080,
			"byteOffset":51884,
			"target":34962
		},
		{
			"buffer":0,
			"byteLength":2856,
			"byteOffset":55964,
			"target":34963
		},
		{
			"buffer":0,
			"byteLength":1896,
			"byteOffset":58820,
			"target":34962
		},
		{
			"buffer":0,
			"byteLength":1896,
			"byteOffset":60716,
			"target":34962
		},
		{
			"buffer":0,
			"byteLength":1264,
			"byteOffset":62612,
			"target":34962
		},
		{
			"buffer":0,
			"byteLength":632,
			"byteOffset":63876,
			"target":34962
		},
		{
			"buffer":0,
			"byteLength":2528,
			"byteOffset":64508,
			"target":34962
		},
		{
			"buffer":0,
			"byteLength":1344,
			"byteOffset":67036,
			"target":34963
		},
		{
			"buffer":0,
			"byteLength":2856,
			"byteOffset":68380,
			"target":34962
		},
		{
			"buffer":0,
			"byteLength":2856,
			"byteOffset":71236,
			"target":34962
		},
		{
			"buffer":0,
			"byteLength":1904,
			"byteOffset":74092,
			"target":34962
		},
		{
			"buffer":0,
			"byteLength":952,
			"byteOffset":75996,
			"target":34962
		},
		{
			"buffer":0,
			"byteLength":3808,
			"byteOffset":76948,
			"target":34962
		},
		{
			"buffer":0,
			"byteLength":2472,
			"byteOffset":80756,
			"target":34963
		},
		{
			"buffer":0,
			"byteLength":4824,
			"byteOffset":83228,
			"target":34962
		},
		{
			"buffer":0,
			"byteLength":4824,
			"byteOffset":88052,
			"target":34962
		},
		{
			"buffer":0,
			"byteLength":3216,
			"byteOffset":92876,
			"target":34962
		},
		{
			"buffer":0,
			"byteLength":1608,
			"byteOffset":96092,
			"target":34962
		},
		{
			"buffer":0,
			"byteLength":6432,
			"byteOffset":97700,
			"target":34962
		},
		{
			"buffer":0,
			"byteLength":3984,
			"byteOffset":104132,
			"target":34963
		},
		{
			"buffer":0,
			"byteLength":5136,
			"byteOffset":108116,
			"target":34962
		},
		{
			"buffer":0,
			"byteLength":5136,
			"byteOffset":113252,
			"target":34962
		},
		{
			"buffer":0,
			"byteLength":3424,
			"byteOffset":118388,
			"target":34962
		},
		{
			"buffer":0,
			"byteLength":1712,
			"byteOffset":121812,
			"target":34962
		},
		{
			"buffer":0,
			"byteLength":6848,
			"byteOffset":123524,
			"target":34962
		},
		{
			"buffer":0,
			"byteLength":4248,
			"byteOffset":130372,
			"target":34963
		},
		{
			"buffer":0,
			"byteLength":5964,
			"byteOffset":134620,
			"target":34962
		},
		{
			"buffer":0,
			"byteLength":5964,
			"byteOffset":140584,
			"target":34962
		},
		{
			"buffer":0,
			"byteLength":3976,
			"byteOffset":146548,
			"target":34962
		},
		{
			"buffer":0,
			"byteLength":1988,
			"byteOffset":150524,
			"target":34962
		},
		{
			"buffer":0,
			"byteLength":7952,
			"byteOffset":152512,
			"target":34962
		},
		{
			"buffer":0,
			"byteLength":4824,
			"byteOffset":160464,
			"target":34963
		},
		{
			"buffer":0,
			"byteLength":5112,
			"byteOffset":165288,
			"target":34962
		},
		{
			"buffer":0,
			"byteLength":5112,
			"byteOffset":170400,
			"target":34962
		},
		{
			"buffer":0,
			"byteLength":3408,
			"byteOffset":175512,
			"target":34962
		},
		{
			"buffer":0,
			"byteLength":1704,
			"byteOffset":178920,
			"target":34962
		},
		{
			"buffer":0,
			"byteLength":6816,
			"byteOffset":180624,
			"target":34962
		},
		{
			"buffer":0,
			"byteLength":1200,
			"byteOffset":187440,
			"target":34963
		},
		{
			"buffer":0,
			"byteLength":8640,
			"byteOffset":188640,
			"target":34962
		},
		{
			"buffer":0,
			"byteLength":8640,
			"byteOffset":197280,
			"target":34962
		},
		{
			"buffer":0,
			"byteLength":5760,
			"byteOffset":205920,
			"target":34962
		},
		{
			"buffer":0,
			"byteLength":2880,
			"byteOffset":211680,
			"target":34962
		},
		{
			"buffer":0,
			"byteLength":11520,
			"byteOffset":214560,
			"target":34962
		},
		{
			"buffer":0,
			"byteLength":6816,
			"byteOffset":226080,
			"target":34963
		},
		{
			"buffer":0,
			"byteLength":1664,
			"byteOffset":232896
		}
	],
	"buffers":[
		{
			"byteLength":234560,
			"uri":"Cindy2.bin"
		}
	]
}
